HIERARCHY
ROOT simHips
{
  OFFSET -2.22114 30.5426 -2.05664
  CHANNELS 6 Xposition Yposition Zposition Zrotation Xrotation Yrotation
  JOINT simSpine
  {
    OFFSET -0.000355721 21.3001 -0.016921
    CHANNELS 3 Zrotation Xrotation Yrotation
    JOINT simLeftArm
    {
      OFFSET 13.5181 21.3012 0
      CHANNELS 3 Zrotation Xrotation Yrotation
      JOINT simLeftForeArm
      {
        OFFSET 24.5783 0 0
        CHANNELS 3 Zrotation Xrotation Yrotation
        JOINT simLeftHand
        {
          OFFSET 24.5783 0 0
          CHANNELS 3 Zrotation Xrotation Yrotation
          End Site
          {
            OFFSET 7.32568 1.52588e-05 0.0169305
          }
        }
      }
    }
    JOINT simHead
    {
      OFFSET 0 27.4458 -0.00489235
      CHANNELS 3 Zrotation Xrotation Yrotation
      End Site
      {
        OFFSET 0 0 0
      }
    }
    JOINT simRightArm
    {
      OFFSET -13.5174 21.3012 0
      CHANNELS 3 Zrotation Xrotation Yrotation
      JOINT simRightForeArm
      {
        OFFSET -24.5783 0 0
        CHANNELS 3 Zrotation Xrotation Yrotation
        JOINT simRightHand
        {
          OFFSET -24.5783 0 0
          CHANNELS 3 Zrotation Xrotation Yrotation
          End Site
          {
            OFFSET -7.32568 1.52588e-05 0.0169305
          }
        }
      }
    }
  }
  JOINT simRightUpLeg
  {
    OFFSET -8.44614 -9.41038 0.835684
    CHANNELS 3 Zrotation Xrotation Yrotation
    JOINT simRightLeg
    {
      OFFSET 0 -40.9639 0
      CHANNELS 3 Zrotation Xrotation Yrotation
      JOINT simRightFoot
      {
        OFFSET 0 -40.9639 0
        CHANNELS 3 Zrotation Xrotation Yrotation
        End Site
        {
          OFFSET 0.50614 -9.67405 14.6709
        }
      }
    }
  }
  JOINT simLeftUpLeg
  {
    OFFSET 8.44614 -9.41038 0.835684
    CHANNELS 3 Zrotation Xrotation Yrotation
    JOINT simLeftLeg
    {
      OFFSET 0 -40.9639 0
      CHANNELS 3 Zrotation Xrotation Yrotation
      JOINT simLeftFoot
      {
        OFFSET 0 -40.9639 0
        CHANNELS 3 Zrotation Xrotation Yrotation
        End Site
        {
          OFFSET -0.50614 -9.67405 14.6709
        }
      }
    }
  }
}
MOTION
Frames: 18
Frame Time: 0.0333333
6.39738 35.6224 4.38324 58.2457 -30.5493 30.6149 1.31211 53.8976 -15.3191 -59.9206 -11.5119 -76.5289 3.04042e-05 -1.85652e-06 -96.9884 -37.7878 -31.8553 -3.77957 -28.3199 21.9582 -4.44443 65.6535 -22.412 -32.1202 -0.00181633 -1.01659e-05 46.9374 -39.3118 -5.66033 -3.79311 -0.592481 -38.279 -28.7504 171.341 73.8875 178.233 -9.53225 3.80081 -8.61131 16.5971 -41.8193 76.5789 171.125 39.1482 -171.724 -7.51233 -3.97145 0.515776 
6.4648 39.4637 0.606536 59.3841 -24.4591 27.0437 1.10025 54.2028 -15.0465 -55.9018 -13.7268 -75.8848 3.04552e-05 -1.37859e-06 -95.1836 -31.6404 -16.762 -15.9758 -30.0683 18.2371 -7.45572 63.783 -21.381 -26.5321 -0.00162677 -1.03197e-05 46.1218 -40.8195 -9.56104 -5.714 -4.59583 -39.1423 -23.9735 161.013 79.6995 -170.834 -17.5231 -6.39092 -11.1141 16.8348 -42.714 65.7253 174.334 46.6478 -175.612 -13.1379 -4.88832 -2.61692 
5.583 43.1556 -2.84943 58.6712 -18.9792 24.6652 3.56655 54.6793 -16.6039 -49.868 -15.7924 -72.1327 3.04405e-05 -1.53225e-06 -95.7632 -22.1708 -8.74449 -19.5318 -31.7501 14.6665 -10.4217 62.6369 -21.7848 -19.3894 -0.00142158 -1.09067e-05 42.899 -41.4491 -13.1217 -6.33536 -1.27287 -40.0537 -16.0269 69.7925 86.6518 -77.7239 -21.1888 -13.0838 -19.7924 16.4195 -40.2819 53.6637 177.396 52.613 -177.887 -14.7876 -9.41025 -1.4079 
4.0391 47.0967 -5.72343 56.4806 -13.3899 23.0958 8.12704 53.2243 -19.1829 -43.4739 -16.0081 -66.5943 3.03782e-05 -2.05804e-06 -97.7514 -14.5472 -6.01427 -21.0118 -33.7427 11.9626 -12.7375 61.5753 -23.4898 -12.3397 -0.00120123 -1.16352e-05 38.6035 -41.4691 -15.4579 -5.60399 7.44784 -41.7802 -4.43323 3.41682 77.6889 -12.9466 -25.4227 -0.669556 -28.9342 15.9264 -34.531 40.3683 179.486 56.7975 178.153 -15.3709 -12.8667 -0.132872 
2.71265 51.0786 -7.70074 54.4469 -7.325 21.7986 12.2045 49.4228 -21.0234 -37.9152 -13.6923 -59.3855 3.03127e-05 -2.49183e-06 -99.3988 -7.94034 -4.47589 -22.4237 -36.1472 10.0175 -14.3828 59.5938 -24.4853 -7.28897 -0.000965873 -1.20628e-05 35.8838 -42.0446 -16.8785 -5.56799 11.904 -44.4532 4.32278 -5.12058 69.1235 -3.94175 -24.2959 10.1708 -28.6821 13.0836 -25.3162 26.3705 -179.463 62.6109 173.249 -15.6563 -12.1702 -1.53757 
1.87963 54.802 -8.89859 52.7256 -1.26175 20.1084 14.8604 44.7228 -21.6118 -32.1374 -6.47383 -50.9061 3.03273e-05 -2.40249e-06 -99.0589 -3.14676 -3.66611 -22.8447 -38.7068 8.39751 -15.7422 56.8069 -23.6795 -3.41513 -0.000716139 -1.22222e-05 34.8238 -43.3553 -17.925 -7.05354 10.5365 -47.5694 5.98947 -5.71861 62.4242 -4.57816 -23.5594 14.0944 -26.9154 8.03213 -13.8428 15.121 -179.825 74.0513 171.236 -15.5199 -7.31759 -5.03924 
1.09393 57.9822 -9.98203 50.5555 4.16163 18.1381 16.7789 41.1695 -21.8693 -26.4711 5.4819 -45.7073 3.04791e-05 -1.08252e-06 -94.0682 -0.662792 -4.49952 -21.7424 -40.7667 6.82888 -17.3039 54.709 -21.4783 2.236 -0.000453288 -1.25349e-05 32.6569 -44.7093 -19.4027 -8.89462 8.86032 -50.0235 5.21794 -3.97203 54.811 -6.34621 -24.7176 17.9607 -24.9341 2.52511 -3.69984 8.36998 50.645 88.4236 -59.7866 -16.2296 -1.88909 -8.77708 
0.434947 59.8098 -11.3488 48.4004 8.67113 16.5145 17.7918 40.0499 -22.7757 -22.1974 17.8241 -45.2705 3.03952e-05 1.92851e-06 -82.7391 0.377113 -8.53623 -18.9508 -41.5862 5.17628 -19.2973 54.2385 -18.4418 10.7891 -0.000178367 -1.31622e-05 27.8657 -45.8437 -22.0723 -10.2597 8.29103 -53.2809 5.21523 -2.43244 57.8831 -5.4241 -12.7195 3.52226 -18.1827 -1.70076 3.73827 5.0556 10.4297 70.3295 -20.1287 -17.7692 -1.09998 -11.4246 
-0.756618 60.4489 -13.4389 46.1411 11.9849 15.3113 18.1149 41.3804 -24.064 -20.8779 26.4905 -47.5762 2.93519e-05 5.8494e-06 -67.4589 2.25824 -14.7912 -14.3639 -40.8507 3.19177 -21.6234 54.9821 -14.9229 20.3765 0.000108296 -1.37841e-05 22.2086 -46.9718 -25.6612 -11.5872 8.17877 -57.8254 3.9003 -1.09275 74.4741 -5.64747 5.12371 -13.911 -6.11908 -3.41476 7.96309 3.92635 10.3472 54.5404 -19.3388 -19.8576 -4.17594 -13.1487 
-2.44705 60.3502 -15.9296 43.7893 14.8751 14.1318 17.4341 44.0365 -24.7112 -23.7857 30.1116 -50.3063 2.7662e-05 8.88768e-06 -54.376 6.08156 -19.3416 -7.93742 -38.8465 0.451381 -24.0605 56.2438 -11.6232 28.1549 0.000685956 -1.40321e-05 19.5288 -48.3595 -28.7093 -13.744 5.78147 -61.0835 -1.01231 174.349 85.2737 176.465 6.27595 -16.1181 -1.20582 -3.20774 7.96154 4.26567 10.8374 44.8193 -18.3657 -22.5933 -7.25024 -14.3007 
-4.61673 60.1801 -18.3778 40.7829 18.8042 12.6499 15.7358 46.5476 -23.8804 -28.5654 30.1679 -53.6317 2.62971e-05 1.0535e-05 -46.3364 10.6706 -24.1326 -0.237484 -36.0226 -3.32008 -26.3377 57.98 -9.25202 33.5931 -0.0255464 -1.3912e-05 20.8674 -49.7108 -30.4868 -16.1997 1.59253 -60.7051 -5.4242 179.78 67.3301 171.156 4.21612 -16.3436 -1.0738 -1.20468 2.62632 4.5657 11.3423 42.6721 -14.8676 -28.1277 -9.72121 -16.5177 
-7.38942 60.7108 -20.1261 36.4783 24.6737 11.2605 13.5908 48.0599 -21.8764 -32.5574 28.7039 -57.4202 2.52053e-05 1.15714e-05 -40.6815 16.7993 -32.8181 10.1596 -32.4594 -7.87278 -28.1866 60.356 -7.79707 38.8433 -0.00316543 -1.37361e-05 22.6916 -50.1143 -32.2162 -17.133 -1.57668 -56.8742 -4.2087 -178.178 55.524 170.334 0.495189 -14.8893 -4.11761 1.78248 -4.78589 4.58715 11.3477 40.0037 -9.28216 -33.1504 -8.67806 -18.3068 
-10.5685 62.1761 -20.7365 30.7182 31.8207 10.8688 11.5276 48.8594 -19.6363 -35.1231 26.2909 -61.7969 2.33885e-05 1.29128e-05 -32.1939 26.8621 -44.736 24.2993 -28.0324 -12.5523 -29.4126 63.5622 -6.5653 45.2104 0.000646598 -1.37615e-05 22.4372 -49.0728 -34.8607 -15.7647 -4.4998 -50.5601 1.0646 -175.54 53.1269 168.021 -2.76461 -14.8333 -10.6905 5.97117 -11.897 4.97227 10.9668 34.0597 -5.50118 -33.3666 -4.00185 -16.4191 
-13.5024 64.2511 -20.2609 23.5583 38.3787 11.9133 9.28355 49.8757 -17.3487 -37.4193 23.1701 -67.3741 2.02726e-05 1.44115e-05 -19.1829 43.6974 -55.5341 42.2255 -23.0906 -16.7526 -29.8338 67.4342 -4.78182 52.3634 0.00224541 -1.39979e-05 19.9189 -46.6081 -38.2252 -12.5225 -7.25292 -43.2425 5.82423 -169.768 60.5507 161.42 -4.62615 -15.5258 -19.4966 11.0631 -17.2 6.16023 10.7509 27.7182 -9.68743 -25.2859 1.86489 -10.9959 
-15.6336 66.2484 -19.2805 15.4142 42.8593 13.5321 5.53203 51.553 -13.7976 -41.0804 19.6838 -70.5828 1.82478e-05 1.49632e-05 -11.2965 63.3237 -60.2945 58.3061 -18.5943 -20.1962 -29.2109 70.9523 -1.80176 58.7812 0.00332339 -1.42345e-05 17.0459 -43.7772 -41.6978 -9.27484 -10.0099 -35.9457 7.71278 -150.473 74.2636 141.484 -7.17127 -15.005 -26.1843 15.4574 -19.9768 5.8634 12.8115 25.6619 -13.5785 -14.9965 3.79057 -5.44915 
-16.5568 67.427 -18.7154 6.08545 44.8317 14.8842 -0.29851 53.0988 -7.32562 -46.6099 16.1009 -71.5082 1.82155e-05 1.49696e-05 -11.1731 71.8282 -59.7125 59.3981 -15.1967 -22.6635 -27.3369 72.5283 2.27698 61.7303 0.00394855 -1.41101e-05 18.6104 -43.2969 -44.2529 -9.90092 -12.7022 -29.3755 6.85314 -62.1652 79.1185 52.2784 -9.96123 -15.2093 -26.0997 18.6727 -27.5217 1.36105 15.0727 43.5862 -17.7886 -6.79652 0.813266 -1.5606 
-16.3207 67.4653 -19.1988 -5.09401 44.4125 15.9271 -6.75019 53.0394 2.15257 -52.3789 10.5616 -69.4656 1.94616e-05 1.46686e-05 -15.9879 73.4419 -53.5047 48.6254 -12.5282 -23.7887 -24.3267 71.4115 6.77754 60.4676 0.00418807 -1.3355e-05 26.2344 -46.7836 -45.4107 -16.2567 -13.714 -23.9493 3.92894 -23.2588 63.4433 12.5852 -9.11542 -18.2992 -17.8191 17.3102 -35.7712 -5.64997 29.7588 70.3845 -34.0612 -3.90627 -2.49898 0.139593 
-15.7161 66.595 -20.4337 -17.3192 41.9547 16.411 -11.5391 50.7635 12.3619 -56.2414 5.22427 -68.0162 2.00226e-05 1.44961e-05 -18.192 66.0994 -52.0258 35.9717 -9.90392 -23.5812 -20.7522 67.8096 11.4299 57.8957 0.00410734 -1.22662e-05 34.5259 -52.822 -46.7117 -25.8464 -10.9873 -18.4083 -0.183602 -14.6001 44.4515 7.1602 -1.30983 -19.838 -5.11461 13.6323 -42.3861 -8.74269 141.571 78.332 -150.189 -5.18216 -3.81331 -0.76526 
